<?xml version="1.0" encoding="utf-8"?>
<!-- Generator: Adobe Illustrator 26.1.0, SVG Export Plug-In . SVG Version: 6.00 Build 0)  -->
<svg version="1.1" id="Layer_1" xmlns="http://www.w3.org/2000/svg" xmlns:xlink="http://www.w3.org/1999/xlink" x="0px" y="0px"
	 viewBox="0 0 473.13 473.15" style="enable-background:new 0 0 473.13 473.15;" xml:space="preserve">
<g>
	<path d="M241.16,0c8.88,3.13,13.15,9.99,16.35,18.47c17.44,46.15,35.25,92.16,52.79,138.27c1.22,3.21,2.98,4.85,6.13,6.05
		c47.25,18,94.44,36.15,141.66,54.2c5.68,2.17,10.4,5.29,13.05,10.95c5.07,10.85,0.16,22.85-11.6,27.51
		c-15.57,6.17-31.27,12.03-46.91,18.02c-32.14,12.32-64.27,24.68-96.45,36.9c-2.99,1.13-4.67,2.76-5.81,5.77
		c-18.06,47.39-36.23,94.74-54.4,142.1c-4.59,11.97-14.87,17.46-25.86,13.76c-6.62-2.23-10.5-7.09-12.94-13.48
		c-15.68-41.07-31.42-82.11-47.15-123.15c-2.42-6.32-5.04-12.56-7.21-18.96c-1.09-3.22-2.86-4.92-6.06-6.14
		c-46.11-17.54-92.11-35.34-138.26-52.78c-8.47-3.2-15.35-7.46-18.49-16.33c0-3.08,0-6.16,0-9.24c3.1-8.92,10.02-13.13,18.48-16.33
		c46.13-17.44,92.13-35.24,138.22-52.78c3.19-1.21,4.88-2.93,6.09-6.11c17.54-46.1,35.34-92.1,52.78-138.24
		c3.2-8.46,7.45-15.36,16.35-18.47C235,0,238.08,0,241.16,0z"/>
	<path d="M97.62,327.66c11.83,4.85,23.2,9.45,34.51,14.22c1.26,0.53,2.58,1.79,3.11,3.04c4.78,11.3,9.4,22.68,14.15,34.24
		c-0.72,0.63-1.33,1.3-2.06,1.79c-24.71,16.42-49.41,32.85-74.17,49.19c-7.87,5.19-15.63,5.06-22.31,0
		c-8.54-6.47-10.25-16.84-4.07-26.19c12.21-18.46,24.54-36.85,36.83-55.26C88.19,341.78,92.79,334.89,97.62,327.66z"/>
	<path d="M330.69,379.51c4.84-11.79,9.39-23.03,14.1-34.2c0.53-1.27,1.7-2.66,2.93-3.18c11.43-4.86,22.94-9.54,34.64-14.36
		c0.81,1.05,1.59,1.95,2.25,2.93c16.22,24.29,32.47,48.56,48.6,72.9c8.03,12.12,2.78,26.81-10.97,29.64
		c-4.01,0.83-9.4,0.28-12.74-1.86C383.13,414.46,357.11,397,330.69,379.51z"/>
	<path d="M382.06,146.33c-11.35-4.66-22.58-9.23-33.76-13.91c-1.17-0.49-2.56-1.41-3.02-2.48c-4.97-11.7-9.77-23.46-14.69-35.37
		c21.03-13.95,41.77-27.71,62.51-41.47c4.99-3.31,9.92-6.74,14.99-9.93c7.81-4.9,16.88-3.91,23.28,2.36
		c6.4,6.27,7.84,15.57,2.83,23.19c-16.9,25.68-34.04,51.19-51.09,76.76C382.94,145.73,382.64,145.87,382.06,146.33z"/>
	<path d="M149.61,94.5c-4.89,11.9-9.57,23.4-14.39,34.85c-0.48,1.13-1.59,2.34-2.71,2.81c-11.43,4.83-22.93,9.52-34.52,14.3
		c-0.72-0.89-1.35-1.54-1.84-2.29c-16.47-24.68-32.91-49.37-49.38-74.05c-4.52-6.77-5.24-13.76-0.9-20.77
		c4.16-6.73,10.36-10,18.32-9.02c2.51,0.31,5.18,1.2,7.28,2.58C97.42,59.92,123.29,77.08,149.61,94.5z"/>
</g>
<g>
</g>
<g>
</g>
<g>
</g>
<g>
</g>
<g>
</g>
<g>
</g>
<g>
</g>
<g>
</g>
<g>
</g>
<g>
</g>
<g>
</g>
</svg>
