<?xml version="1.0" encoding="utf-8"?>
<!-- Generator: Adobe Illustrator 26.1.0, SVG Export Plug-In . SVG Version: 6.00 Build 0)  -->
<svg version="1.1" id="Layer_1" xmlns="http://www.w3.org/2000/svg" xmlns:xlink="http://www.w3.org/1999/xlink" x="0px" y="0px"
	 viewBox="0 0 429.23 476.89" style="enable-background:new 0 0 429.23 476.89;" xml:space="preserve">
<style type="text/css">
	.st0{fill:#A17ADC;}
	.st1{fill:#230068;}
	.st2{fill:#360092;}
	.st3{fill:#764AB8;}
	.st4{fill:#A487CF;}
	.st5{fill:#380292;}
</style>
<path class="st0" d="M212.88,0c1.94,0,3.88,0,5.82,0c0.18,0.06,0.35,0.17,0.54,0.19c6.7,0.56,12.82,2.87,18.59,6.19
	c15.85,9.13,31.69,18.27,47.54,27.4c21.12,12.17,42.25,24.32,63.38,36.49c19.24,11.08,38.48,22.18,57.73,33.25
	c4.99,2.87,9.47,6.34,13.01,10.91c1.05,1.35,1.84,2.91,2.75,4.37c-0.32,0.25-0.62,0.55-0.98,0.75
	c-13.14,7.58-26.28,15.16-39.43,22.73c-9.62,5.54-19.25,11.07-28.88,16.6c-0.18-0.38-0.33-0.79-0.56-1.14
	c-2.36-3.64-4.63-7.35-7.13-10.89c-8.24-11.69-17.98-22.01-29.08-31.03c-11.16-9.07-23.34-16.48-36.54-22.22
	c-15.62-6.8-31.93-10.9-48.89-12.39c-7.57-0.67-15.16-0.73-22.76-0.32c-7.95,0.42-15.8,1.47-23.58,3.1
	c-16.48,3.46-32.01,9.43-46.55,17.91c-16.89,9.84-31.46,22.39-43.71,37.63c-10.33,12.85-18.47,26.95-24.34,42.36
	c-7.33,19.23-10.74,39.14-10.28,59.73c0.16,6.94,0.7,13.85,1.76,20.7c2.85,18.36,8.77,35.69,17.74,51.97
	c0.31,0.56,0.54,1.17,0.81,1.76c-0.3,0.23-0.59,0.49-0.91,0.68c-20.59,11.87-41.18,23.73-61.78,35.58
	c-2.71,1.56-5.46,3.06-8.19,4.58c-2.25-3.76-3.5-7.88-4.26-12.16c-0.3-1.7-0.48-3.42-0.71-5.13c0-67.61,0-135.22,0-202.83
	c0.15-1.02,0.31-2.05,0.44-3.07c1.5-12.38,7.54-22,18.11-28.48c10.3-6.32,20.86-12.21,31.34-18.24
	c22.49-12.95,45.02-25.86,67.51-38.82c23.8-13.72,47.57-27.47,71.35-41.22c5.2-3.01,10.64-5.38,16.62-6.37
	C210.53,0.38,211.7,0.19,212.88,0z"/>
<path class="st1" d="M8.97,356.89c2.73-1.53,5.48-3.02,8.19-4.58c20.6-11.85,41.19-23.71,61.78-35.58c0.33-0.19,0.61-0.45,0.91-0.68
	c0.32,0.43,0.67,0.84,0.94,1.3c13,22.12,30.26,40.14,51.92,53.89c20.65,13.11,43.18,20.95,67.51,23.53
	c14.58,1.55,29.08,1.09,43.53-1.4c22.52-3.88,43.2-12.29,62.05-25.19c16.06-11,29.66-24.5,40.7-40.53
	c2.39-3.47,4.58-7.08,6.86-10.63c0.95,0.52,1.9,1.01,2.84,1.55c5.16,2.98,10.3,5.97,15.46,8.95c4.32,2.5,8.64,4.98,12.97,7.47
	c3.72,2.14,7.44,4.28,11.15,6.44c5.14,3,10.27,6.04,15.41,9.03c3.04,1.77,6.1,3.51,9.16,5.24c0.77,0.43,1.59,0.76,2.39,1.14
	c-0.22,0.45-0.42,0.91-0.68,1.34c-3.67,6.09-8.8,10.67-14.9,14.19c-25.19,14.53-50.4,29.03-75.59,43.54
	c-30.23,17.42-60.47,34.83-90.68,52.28c-6.04,3.49-12.19,6.59-19.18,7.63c-1.16,0.17-2.32,0.35-3.48,0.53c-1.63,0-3.26,0-4.88,0
	c-0.12-0.07-0.24-0.19-0.37-0.2c-6.7-0.45-12.88-2.61-18.65-5.92c-18.66-10.73-37.27-21.55-55.92-32.3
	c-36.74-21.16-73.49-42.31-110.24-63.44c-4.68-2.69-9.32-5.41-13.1-9.34C12.66,362.69,10.45,360.06,8.97,356.89z"/>
<path class="st2" d="M422.75,356.86c-0.8-0.38-1.62-0.71-2.39-1.14c-3.07-1.73-6.12-3.47-9.16-5.24c-5.14-3-10.27-6.03-15.41-9.03
	c-3.71-2.16-7.43-4.3-11.15-6.44c-4.32-2.49-8.65-4.97-12.97-7.47c-5.15-2.98-10.3-5.97-15.46-8.95c-0.93-0.54-1.89-1.04-2.84-1.55
	c-0.29-0.24-0.55-0.52-0.87-0.7c-21.47-12.45-42.94-24.9-64.42-37.34c-1.06-0.61-2.17-1.14-3.26-1.7c-2.13-1.25-4.25-2.52-6.39-3.76
	c-4.64-2.71-9.29-5.42-13.94-8.12c-4.28-2.48-8.58-4.95-12.87-7.43c-4.55-2.64-9.1-5.28-13.64-7.92
	c-5.08-2.95-10.16-5.92-15.26-8.85c-2.11-1.21-4.26-2.35-6.4-3.52c0.29-0.19,0.57-0.4,0.87-0.57
	c20.09-11.57,40.17-23.13,60.26-34.71c2.3-1.33,4.57-2.72,6.86-4.08c0.59-0.28,1.2-0.53,1.76-0.85
	c14.22-8.19,28.44-16.38,42.66-24.57c8.08-4.66,16.15-9.33,24.22-14c9.63-5.53,19.26-11.06,28.88-16.6
	c13.15-7.57,26.29-15.14,39.43-22.73c0.35-0.2,0.65-0.5,0.98-0.75c0.2,0.22,0.45,0.42,0.59,0.68c2.61,4.86,4.19,10.02,4.54,15.55
	c0.02,0.35,0.29,0.69,0.45,1.04c0,0.78,0,1.55,0,2.33c-0.08,0.39-0.22,0.78-0.22,1.17c-0.01,15.69-0.01,31.38-0.01,47.07
	c0,0.43,0.03,0.85,0.05,1.28c-0.02,0.54-0.05,1.08-0.05,1.62c0,48.61,0,97.21,0,145.82c0,1.12,0.02,2.24,0.04,3.37
	c-0.26,2.3-0.38,4.63-0.8,6.9C426.08,349.58,424.87,353.39,422.75,356.86z M305.25,226.38c7.49,0,14.87,0,22.24,0
	c0,7.48,0,14.83,0,22.31c-7.44,0-14.82,0-22.2,0c0,3.79,0,7.44,0,11.21c7.46,0,14.84,0,22.29,0c0,7.47,0,14.82,0,22.21
	c3.73,0,7.38,0,11.18,0c0-7.45,0-14.83,0-22.19c7.48,0,14.82,0,22.3,0c0,7.46,0,14.83,0,22.21c3.77,0,7.4,0,11.15,0
	c0-7.44,0-14.82,0-22.32c7.5,0,14.88,0,22.27,0c0-3.75,0-7.38,0-11.15c-7.44,0-14.81,0-22.18,0c0-7.52,0-14.9,0-22.37
	c7.44,0,14.79,0,22.17,0c0-3.76,0-7.41,0-11.18c-7.46,0-14.84,0-22.31,0c0-7.46,0-14.81,0-22.18c-3.74,0-7.4,0-11.16,0
	c0,7.43,0,14.78,0,22.14c-7.48,0-14.85,0-22.33,0c0-7.43,0-14.78,0-22.14c-3.76,0-7.41,0-11.15,0c0,7.44,0,14.79,0,22.24
	c-7.46,0-14.84,0-22.27,0C305.25,218.91,305.25,222.54,305.25,226.38z"/>
<path class="st3" d="M427.81,338.67l-0.09,0.05c0,0-0.1,0-0.1,0c-0.01-1.12-0.04-2.24-0.04-3.37c0-48.61,0-97.21,0-145.82
	c0-0.54,0.03-1.08,0.05-1.62c0.06-0.01,0.13,0,0.18,0.03C427.81,238.19,427.81,288.43,427.81,338.67z"/>
<path class="st4" d="M427.81,187.95c-0.06-0.03-0.12-0.04-0.18-0.03c-0.02-0.43-0.05-0.85-0.05-1.28c0-15.69,0-31.38,0.01-47.07
	c0-0.39,0.15-0.78,0.22-1.17C427.81,154.92,427.81,171.43,427.81,187.95z"/>
<path class="st0" d="M148.68,276.57c-2.76-4.61-4.83-9.53-6.45-14.64c-2.27-7.13-3.48-14.43-3.63-21.93
	c-0.37-18.77,5.18-35.6,16.74-50.34c10.72-13.66,24.6-22.73,41.38-27.31c8.03-2.19,16.23-2.97,24.52-2.52
	c12.8,0.7,24.74,4.32,35.77,10.9c11.09,6.62,20,15.46,26.79,26.44c0.22,0.35,0.35,0.76,0.52,1.14c-2.28,1.36-4.55,2.75-6.86,4.08
	c-20.08,11.58-40.17,23.14-60.26,34.71c-0.3,0.17-0.58,0.38-0.87,0.57c-0.21,0.1-0.43,0.18-0.63,0.29
	C193.35,250.83,171.01,263.7,148.68,276.57z"/>
<path class="st1" d="M148.68,276.57c22.34-12.87,44.68-25.73,67.02-38.6c0.2-0.11,0.42-0.19,0.63-0.29c2.13,1.17,4.29,2.3,6.4,3.52
	c5.1,2.93,10.17,5.9,15.26,8.85c4.55,2.64,9.09,5.29,13.64,7.92c4.29,2.48,8.58,4.94,12.87,7.43c4.65,2.7,9.3,5.41,13.94,8.12
	c2.13,1.25,4.26,2.51,6.39,3.76c-2.66,4.89-5.97,9.32-9.71,13.42c-12.32,13.49-27.47,21.89-45.5,24.84
	c-16.2,2.65-31.8,0.43-46.62-6.71c-14.35-6.92-25.53-17.35-33.68-31.03C149.07,277.4,148.89,276.98,148.68,276.57z"/>
<path class="st5" d="M338.8,226.38c7.43,0,14.73,0,22.13,0c0,7.42,0,14.79,0,22.23c-7.37,0-14.71,0-22.13,0
	C338.8,241.22,338.8,233.85,338.8,226.38z"/>
<g>
</g>
<g>
</g>
<g>
</g>
<g>
</g>
<g>
</g>
<g>
</g>
<g>
</g>
<g>
</g>
<g>
</g>
<g>
</g>
<g>
</g>
</svg>
